# xmcd
# 
# Track frame offsets:
#     150
#     27149
#     47378
#     71412
#     95813
#     114951
#     142025
#     167218
#     190705
#     215510
#     240515
#     274903
#     303095
#     324733
#     347326
#     373090
# 
# Disc length: 5191
# 
# Revision: 0
# Processed by: cddbd v1.5.2PL0 Copyright (c) Steve Scherf et al.
# Submitted via: fre:ac v1.0.17
# 
DISCID=e7144510
DTITLE=RAHAT FATEH ALI KHAN - FOREVER.........RAHAT FATEH ALI KHAN
DYEAR=2011
DGENRE=Blues
TTITLE0=TERE MAST MAST DO NAIN
TTITLE1=TUM JO AAYE-REPRISE
TTITLE2=AAS PAAS KHUDA
TTITLE3=KHUSHNUMA SA YE ROSHAN HO
TTITLE4=MAN KI MAT
TTITLE5=ISHQ KI GALI
TTITLE6=DIL TO BACHCHA HAI
TTITLE7=RABBA
TTITLE8=JAG SOONA SOONA LAGE
TTITLE9=JAOON KAHAN
TTITLE10=HAAL-E-DIL
TTITLE11=KHWAB JO
TTITLE12=TUM JO AAYE
TTITLE13=TERE MAST MAST DO NAIN-REMIX
TTITLE14=KOI CHALA JA RAHA HAI
TTITLE15=ISHQ KI GALI-REMIX
EXTD=
EXTT0=
EXTT1=
EXTT2=
EXTT3=
EXTT4=
EXTT5=
EXTT6=
EXTT7=
EXTT8=
EXTT9=
EXTT10=
EXTT11=
EXTT12=
EXTT13=
EXTT14=
EXTT15=
PLAYORDER=
